SplineFontDB: 3.2
FontName: PaulaVeza
FullName: PaulaVeza
FamilyName: PaulaVeza
Weight: Regular
Copyright: Copyright (c) 2024, paula
UComments: "2024-3-18: Created with FontForge (http://fontforge.org)"
Version: 001.000
ItalicAngle: 0
UnderlinePosition: -100
UnderlineWidth: 50
Ascent: 800
Descent: 200
InvalidEm: 0
LayerCount: 4
Layer: 0 0 "Back" 1
Layer: 1 0 "Fore" 0
Layer: 2 0 "Back 2" 1
Layer: 3 0 "Back 3" 1
XUID: [1021 859 2035213029 1586]
StyleMap: 0x0000
FSType: 0
OS2Version: 0
OS2_WeightWidthSlopeOnly: 0
OS2_UseTypoMetrics: 1
CreationTime: 1710788752
ModificationTime: 1713006513
OS2TypoAscent: 0
OS2TypoAOffset: 1
OS2TypoDescent: 0
OS2TypoDOffset: 1
OS2TypoLinegap: 90
OS2WinAscent: 0
OS2WinAOffset: 1
OS2WinDescent: 0
OS2WinDOffset: 1
HheadAscent: 0
HheadAOffset: 1
HheadDescent: 0
HheadDOffset: 1
MarkAttachClasses: 1
DEI: 91125
Encoding: iso8859-2
UnicodeInterp: none
NameList: AGL For New Fonts
DisplaySize: -48
AntiAlias: 1
FitToEm: 0
WinInfo: 0 19 15
BeginPrivate: 0
EndPrivate
BeginChars: 256 21

StartChar: P
Encoding: 80 80 0
Width: 370
Flags: HW
LayerCount: 4
Fore
SplineSet
176 526 m 17
 218.882543938 494.053796343 264 498 294 526 c 1
 324 554 329.756075087 602.000000003 294 640 c 1
 294 640 247.365759976 686.047120799 178 640 c 9
 176 526 l 17
66 0 m 1
 72 744 l 1
 252.907226562 780.333007812 312 756 384 690 c 1
 416 658 468 542 374 436 c 1
 360 408 278.3125 363.801757812 178 404 c 1
 176.728515625 406.4453125 170.897460938 -3.1201171875 172 0 c 0
 173.999023438 5.6572265625 66 0 66 0 c 1
EndSplineSet
Validated: 37
EndChar

StartChar: a
Encoding: 97 97 1
Width: 504
Flags: HW
LayerCount: 4
Fore
SplineSet
147 138 m 1
 176.488479401 99.1258015101 256 122 264 141 c 1
 275.28515625 169.333007812 277.541992188 195.666992188 261 224 c 1
 246 241 225.865234375 252.916015625 189 248 c 1
 168.170898438 243.603515625 154.854662901 228.940514683 142 211 c 1
 128.238349675 180.699951529 135 158 147 138 c 1
80 28 m 1
 -6.1328125 75.09765625 25.7724609375 242.833007812 80 317 c 1
 120.045388514 375.831670407 230 385 289 365 c 1
 337 351 366 335 393 320 c 1
 407.190429688 262.192382812 410 230 409 188 c 1
 408.374023438 159.477539062 415.920898438 132.05859375 428 104 c 1
 456.364257812 79.2099609375 469.209960938 88.044921875 488 84 c 1
 488 84 490.338867188 12.2470703125 494 17 c 0
 496.817382812 20.658203125 443.352697947 16.1841567256 428 17 c 0
 416.893204558 17.5902157649 388.068111237 25.3326771333 378 40 c 1
 338 78 l 1
 355.345040415 82.8039019668 288.244347939 14.5780339499 279 12 c 0
 269.516463685 9.35526196706 197.471679688 -25.0341796875 80 28 c 1
EndSplineSet
Validated: 37
EndChar

StartChar: u
Encoding: 117 117 2
Width: 372
Flags: HW
LayerCount: 4
Fore
SplineSet
18 352 m 1
 8 266 17 124 29 98 c 1
 58 28 121 2 168 4 c 1
 226.165039062 6.251953125 245.971679688 37.9951171875 289 68 c 1
 286 12 l 1
 289.55859375 0.794921875 330.71484375 4.89453125 346 12 c 1
 349 368 l 1
 286 367 l 1
 282 329 298 202 272 138 c 1
 243 91 191 87 146 86 c 1
 140 90 103 81 83 148 c 1
 75.1123046875 216.666992188 78.4501953125 285.333007812 79 354 c 1
 18 352 l 1
EndSplineSet
Validated: 41
EndChar

StartChar: l
Encoding: 108 108 3
Width: 261
Flags: HW
LayerCount: 4
Fore
SplineSet
94 381 m 1
 176.375976562 462.499023438 148.771484375 436.861328125 162 451 c 1
 179 477 208.305441664 547.085738415 185 555 c 1
 164.666666667 557.945225285 144.333333333 548.849403666 124 531 c 1
 112.318918077 513.911020698 96.9814453125 485.0703125 95 460 c 1
 92.348654741 432.988873361 87.5559054346 414.926766211 94 381 c 1
241 67 m 1
 242.7734375 45.033203125 210.319335938 22.62109375 196 12 c 0
 182.6328125 2.0849609375 112.728515625 1.265625 93 8 c 0
 79.630859375 12.5634765625 43 42 38 87 c 1
 32 273 l 1
 32.7216796875 324.594726562 27.2138671875 396.884765625 37 475 c 1
 49.1875 538.642578125 73.6201171875 562.484375 96 593 c 1
 115 617 157.234375 662.383789062 195 657 c 1
 220.85546875 649.515625 209 654 230 639 c 1
 250.859424414 613.085101607 249 595 252 574 c 1
 255.022460938 529.619140625 233.139281709 464.289680696 223 443 c 1
 224.4765625 445.466796875 210.056609117 416.308611814 203 404 c 0
 189.287109375 380.081054688 161.706054688 342.676757812 162 344 c 1
 109 288 l 1
 76.7050803776 269.427730135 91.103166791 218.999983957 86 195 c 1
 88 141 l 1
 89.3505859375 124.629882812 79.0888671875 102.53515625 110 76 c 1
 137.321289062 53.5029296875 178.93359375 61.740234375 201 78 c 1
 240 109 l 1
 241 67 239.005859375 73.12890625 241 67 c 1
EndSplineSet
Validated: 33
EndChar

StartChar: V
Encoding: 86 86 4
Width: 436
Flags: HW
LayerCount: 4
Fore
SplineSet
50 700 m 5
 24.4484279319 702.214085297 167.051697691 6.90999684499 176 6 c 4
 235 0 272.692770836 -2.6489233605 308 8 c 4
 332.163883712 15.2880073525 452.983398438 552.688476562 469 701 c 5
 442.556640625 700.301757812 444.96875 709.388671875 400 700 c 5
 322 440 329.252374108 318.345471576 269 119 c 5
 256.134934979 114.992379017 243.452019648 110.074097578 228 119 c 5
 191.32489904 312.76838884 163.469991241 503.911575209 119 700 c 5
 87.5853222803 708.414089535 71.8810102736 701.118911509 50 700 c 5
EndSplineSet
Validated: 41
EndChar

StartChar: e
Encoding: 101 101 5
Width: 394
Flags: HW
LayerCount: 4
Fore
SplineSet
131 269 m 1
 118.041759176 275.875283339 104.663085938 293.98046875 116 319 c 1
 125 333 128.723111753 332.999147729 144 345 c 1
 193.950792035 374.873921463 230.756863353 360.637426592 251 348 c 1
 270.172415655 329.152095875 273.947434288 314.561435349 274 301 c 1
 275 289 272.419484325 279.001177923 245 268 c 1
 207.000000455 259.859078899 169.000000324 262.633845421 131 269 c 1
106 187 m 1
 164.023470865 177.835009984 219.93205135 172.764164494 270 179 c 1
 351.78460697 193.348552648 383.4276402 247.003125603 365 309 c 1
 340.014460373 371.592806938 333.798130749 387.295144388 299 420 c 1
 267 444 178.666015625 458.294921875 129 428 c 1
 106.469726562 409.751953125 82 397 55 346 c 1
 33.4375 295.76171875 17.4697265625 224.205078125 22 166 c 1
 28.6123046875 109.140625 39.8692806058 71.9857978893 76 23 c 1
 122.402560327 -7.45295118089 149.612304688 1.439453125 184 0 c 1
 270 0 313 26 367 64 c 1
 326 118 l 1
 281 91 251 60 195 61 c 1
 160 59 105 89 99 107 c 1
 84 149 96.2301287608 164.035514032 106 187 c 1
EndSplineSet
Validated: 41
EndChar

StartChar: Scaron
Encoding: 169 352 6
Width: 400
Flags: HW
LayerCount: 4
Fore
SplineSet
76 718 m 1
 151 621 l 1
 199 622 l 1
 260 722 l 1
 203 720 l 1
 172 659 l 1
 172 659 l 1
 137 716 l 1
 76 718 l 1
331 523 m 1
 292 558 283 561 240 572 c 1
 198 580 169 579 137 571 c 1
 104 561 78.798828125 555.288085938 48 509 c 1
 39.7568359375 489.982421875 23 442 30 353 c 1
 33.2880859375 325.806640625 52 293 97 277 c 1
 90.595703125 273.73046875 186.734375 271.271484375 201 271 c 0
 221.015625 270.619140625 279 251 299 234 c 1
 330 200 304.475585938 160.42578125 286 133 c 1
 264 109 250.0234375 100.211914062 203 94 c 1
 169.616210938 94.2900390625 136.0078125 102.611328125 100 115 c 1
 20 151 l 1
 20 68 l 1
 31.4189453125 58.857421875 26.3681640625 53.55859375 80 32 c 1
 112.930664062 20.0126953125 135 11 165 12 c 1
 232.58984375 13.970703125 224 8 263 19 c 1
 299.051757812 27.5654296875 320 41 342 60 c 1
 365.345703125 82.248046875 374.517578125 107.153320312 384 132 c 1
 388.760742188 153.052734375 398.584960938 180.422851562 392 204 c 1
 384 233 378.348632812 241.911132812 360 272 c 1
 345.709960938 287.84765625 342.4453125 293.75390625 327 307 c 1
 313 322 268.224609375 335.625 238 336 c 1
 210.32421875 337.911132812 180.7109375 335.171875 158 349 c 1
 135.662109375 367.8125 123 399 127 422 c 1
 138 450 145 451 157 459 c 1
 177 471 200.399414062 475.66796875 220 476 c 1
 252.944335938 476.258789062 312.900390625 453.51953125 331 446 c 1
 331 523 l 1
EndSplineSet
Validated: 37
EndChar

StartChar: Zcaron
Encoding: 174 381 7
Width: 502
Flags: HW
LayerCount: 4
Fore
SplineSet
99 739 m 5
 218 628 l 5
 346 743 l 5
 279 742 l 5
 218 689 l 5
 166 742 l 5
 99 739 l 5
40 603 m 5
 43 508 l 5
 333 510 l 5
 35 110 l 5
 36 8 l 5
 491 11 l 5
 487 110 l 5
 159 110 l 5
 443 515 l 5
 444 605 l 5
 40 603 l 5
EndSplineSet
Validated: 9
EndChar

StartChar: Cacute
Encoding: 198 262 8
Width: 478
Flags: HW
LayerCount: 4
Fore
SplineSet
281 638 m 1
 354 637 l 1
 429 729 l 1
 356 729 l 1
 281 638 l 1
398 462 m 1
 420 534 l 1
 384 557 352.323993715 576.32357901 298 586 c 1
 244 595 243.073242188 594.407226562 178 576 c 1
 136.6953125 561.638671875 82.916015625 513.578125 68 478 c 1
 50 432 39.3681640625 392 35 342 c 1
 33.5712890625 290.880859375 29.1767578125 226.823242188 42 168 c 1
 51.8662109375 126.739257812 70.9453125 94.595703125 98 56 c 1
 129 18 190.068359375 6.51171875 246 0 c 1
 298 0 342.55859375 3.205078125 384 11 c 1
 410 16 444 64 453 90 c 0
 455.10546875 96.08203125 469.225585938 158 469 158 c 1
 406 182 l 1
 394 143 389 94 335 82 c 1
 281 71 230.333007812 66.9306640625 178 104 c 1
 146.091796875 136.455078125 135.504882812 192.330078125 127 234 c 1
 123.620745116 270.715423212 128.081271043 300.182726661 130 332 c 1
 134.866077552 365.934285934 139.718064167 399.878215072 156 426 c 1
 175.860432449 457.997986804 186 468 207 478 c 1
 207 478 253 495 284 492 c 0
 313.926757812 489.103515625 367 474 367 474 c 1
 398 462 l 1
EndSplineSet
Validated: 37
EndChar

StartChar: Ccaron
Encoding: 200 268 9
Width: 536
Flags: HW
LayerCount: 4
Fore
SplineSet
211 759 m 1
 267 756 l 1
 313 709 l 1
 367 759 l 1
 415 759 l 1
 314 659 l 1
 269 693 243 730 211 759 c 1
436 495 m 1
 464 585 l 1
 417.349609375 620.870117188 366.272460938 625.338867188 317 637 c 1
 271 640 248 639 197 621 c 1
 159.046875 611.866210938 120.958007812 575.45703125 99 555 c 1
 71 527 50.9033203125 507.151367188 38 464 c 1
 21 415 16.8154296875 404.501953125 14 348 c 1
 6.166015625 286.506835938 22 213 41 147 c 1
 56.662109375 90.9580078125 107.505859375 48.044921875 171 16 c 1
 224.404296875 7.505859375 274.587890625 3.74609375 320 7 c 1
 403.423828125 34.8955078125 460.703125 90.08984375 524 139 c 1
 443 203 l 1
 407 177 380.227539062 157.25 328 138 c 1
 296 130 268.819335938 126.514648438 222 138 c 1
 191.064453125 148.795898438 170.928710938 171.876953125 152 211 c 1
 130.791015625 259.71875 138 285 139 314 c 1
 142 350.666992188 148.333007812 384.666992188 158 416 c 1
 170.524414062 445.834960938 184.59765625 473.138671875 202 495 c 1
 226.013671875 520.520507812 257 532 304 531 c 1
 350.606445312 526.024414062 385.236328125 512.059570312 436 495 c 1
EndSplineSet
Validated: 41
EndChar

StartChar: ccaron
Encoding: 232 269 10
Width: 482
Flags: HW
LayerCount: 4
Fore
SplineSet
152 575 m 1
 208 572 l 1
 254 525 l 1
 307 576 l 1
 355 576 l 1
 255 475 l 1
 210 509 184 546 152 575 c 1
375 326 m 1
 403 381 l 1
 356.349609375 416.870117188 330.272460938 426.338867188 281 438 c 1
 235 441 241 444 194 433 c 1
 156.046875 423.866210938 157 425 126 410 c 1
 95 391 89 382 61 342 c 1
 44 293 38.8154296875 293.501953125 36 237 c 1
 34 158 46 171 60 116 c 1
 95 60 109.505859375 56.044921875 173 24 c 1
 226.404296875 15.505859375 276 7 318 24 c 1
 396 75 397 75 451 136 c 1
 429 180 l 1
 393 154 383 134 336 101 c 1
 288 71 242.216796875 73.21484375 195 92 c 1
 166 110 149.928710938 118.876953125 131 158 c 1
 108.875976562 210.657226562 110.044921875 270.9140625 110 266 c 1
 115 293 113.965820312 282.3125 127 308 c 1
 140.3203125 337.661132812 152 333 185 357 c 1
 217 373 244.430664062 376.4921875 300 360 c 1
 342.883789062 345.092773438 333.616210938 351.30859375 375 326 c 1
EndSplineSet
Validated: 41
EndChar

StartChar: cacute
Encoding: 230 263 11
Width: 482
Flags: HW
LayerCount: 4
Fore
SplineSet
275 478 m 1
 298 517 l 1
 315 543 l 1
 337 575 l 1
 387 557 l 1
 323 458 l 1
 274 480 308 463 275 478 c 1
375 326 m 1
 403 381 l 1
 356.349609375 416.870117188 330.272460938 426.338867188 281 438 c 1
 235 441 241 444 194 433 c 1
 156.046875 423.866210938 157 425 126 410 c 1
 95 391 89 382 61 342 c 1
 44 293 38.8154296875 293.501953125 36 237 c 1
 34 158 46 171 60 116 c 1
 95 60 109.505859375 56.044921875 173 24 c 1
 226.404296875 15.505859375 276 7 318 24 c 1
 396 75 397 75 451 136 c 1
 429 180 l 1
 393 154 383 134 336 101 c 1
 288 71 231.216796875 69.21484375 184 88 c 5
 155 106 130.928710938 110.876953125 112 150 c 1
 89.8759765625 202.657226562 110.044921875 270.9140625 110 266 c 1
 115 293 113.965820312 282.3125 127 308 c 1
 140.3203125 337.661132812 152 333 185 357 c 1
 217 373 244.430664062 376.4921875 300 360 c 1
 342.883789062 345.092773438 333.616210938 351.30859375 375 326 c 1
EndSplineSet
Validated: 41
EndChar

StartChar: zcaron
Encoding: 190 382 12
Width: 355
Flags: HW
LayerCount: 4
Fore
SplineSet
89 481 m 1
 188 387 l 1
 285 494 l 1
 233 492 l 1
 186 438 l 1
 144 482 l 1
 89 481 l 1
38 369 m 1
 37.119140625 350.803710938 38.556640625 286.811523438 39 296 c 1
 215 297 l 1
 37 75 l 1
 36 8 l 1
 325 10 l 1
 324 77 l 1
 140 76 l 1
 314 289 l 1
 314 369 l 1
 38 369 l 1
EndSplineSet
Validated: 41
EndChar

StartChar: Dcroat
Encoding: 208 272 13
Width: 486
Flags: HW
LayerCount: 4
Fore
SplineSet
19 408 m 1
 19 319 l 1
 241 322 l 1
 241 406 l 1
 19 408 l 1
180 173 m 1
 181 525 l 1
 237 521 299 511 336 469 c 1
 392 390 370.696289062 315.958007812 339 252 c 1
 302.2421875 179.594726562 232 181 180 173 c 1
82 686 m 1
 83 22 l 1
 159 20 226 18.9833984375 299 32 c 1
 388 61 439.827148438 104.56640625 454 159 c 1
 470.483398438 224.333007812 472.966796875 294.666992188 477 360 c 1
 476 414 489.159179688 440.375 446 555 c 1
 414 642 385 662 302 685 c 1
 228.666992188 689.711914062 155.333007812 690.588867188 82 686 c 1
EndSplineSet
Validated: 37
EndChar

StartChar: scaron
Encoding: 185 353 14
Width: 398
Flags: HW
LayerCount: 4
Fore
SplineSet
98 602 m 1
 202 508 l 1
 298 608 l 1
 248 602 l 1
 200 560 l 1
 152 600 l 25
 98 602 l 1
317 421 m 1
 303 436 310.586914062 438.82421875 270 454 c 1
 229 470 189.666992188 471.602539062 149 459 c 1
 116.80859375 450.399414062 102.864257812 441.28515625 76 422 c 1
 52.7802734375 400.533203125 39 369 39 344 c 1
 41.5107421875 300.286132812 57 277 84 250 c 1
 117 222.860351562 133 225 166 218 c 1
 204 217 239 214 274 200 c 1
 290.850818952 186.344499664 303.081054688 170.3984375 313 120 c 1
 310 92 246 91 201 93 c 1
 157.757432372 96.9257679022 117.654249582 99.9530696888 67 106 c 1
 58 47 l 1
 130 34 173 27 241 28 c 1
 328.903320312 39.828125 327 39 361 68 c 1
 383 99 391.362304688 126.086914062 379 166 c 1
 366.48828125 208.153320312 351 244 300 260 c 1
 246.997070312 270.994140625 225 262 153 281 c 1
 123.349609375 300.00390625 92.9150390625 326.404296875 104 356 c 1
 126.533203125 389.689453125 178 390 205 387 c 1
 232.666992188 380.5390625 260.333007812 373.390625 288 360 c 1
 317 421 l 1
EndSplineSet
Validated: 41
EndChar

StartChar: dcroat
Encoding: 240 273 15
Width: 374
Flags: HW
LayerCount: 4
Fore
SplineSet
130 204 m 1
 167 200 183.844726562 181.13671875 187 162 c 1
 191.340820312 131.76953125 181 115 170 97 c 1
 152 87 127.528320312 84.0791015625 102 88 c 1
 82.3818359375 99.4931640625 74 118 71 135 c 1
 70 155 75.958984375 174.900390625 88 188 c 1
 98.66796875 199.506835938 111 204 130 204 c 1
197 457 m 1
 192.141601562 443.571289062 186.323242188 437.783203125 197 414 c 1
 357 410 l 1
 366.265625 427.825195312 370.991210938 440.83203125 359 456 c 1
 197 457 l 1
192 269 m 1
 167 281 140.684570312 285.391601562 103 272 c 1
 75.1337890625 264.749023438 49 242 34 208 c 1
 26.86328125 192.037109375 11 148 12 112 c 0
 12.484375 94.5517578125 15 66 64 17 c 1
 107.524414062 -6.7314453125 157.927734375 12.3486328125 160 12 c 0
 175.723632812 9.357421875 237.514648438 59.978515625 237 60 c 1
 237 9 l 1
 259 2.279296875 281 4.8994140625 303 10 c 1
 317 530 l 1
 288.779296875 542.624023438 263.895507812 541.041992188 241 531 c 1
 231 208 l 1
 222.513671875 230.857421875 209.311523438 251.471679688 192 269 c 1
EndSplineSet
Validated: 37
EndChar

StartChar: o
Encoding: 111 111 16
Width: 438
Flags: HW
LayerCount: 4
Fore
SplineSet
178 82 m 1
 229 79 282.28125 106.481445312 302 132 c 0
 319 154 337 269 269 300 c 0
 186.193359375 337.75 117 289 108 274 c 0
 95.630859375 253.384765625 77.306640625 187.286132812 102 136 c 0
 115 109 155 82 178 82 c 1
48 60 m 1
 38 74 10 98 10 212 c 1
 12 294 51 344 71 362 c 1
 145.870117188 412.900390625 244 414 299 394 c 1
 351 371 408 306 408 238 c 1
 416 150 396.995117188 82.005859375 349 46 c 0
 346.505859375 44.12890625 315 0 201 0 c 1
 151.974609375 -4.4296875 88 14 48 60 c 1
EndSplineSet
Validated: 524321
EndChar

StartChar: v
Encoding: 118 118 17
Width: 325
Flags: HW
LayerCount: 4
Fore
SplineSet
26 377 m 1
 39 387 90 396 106 390 c 1
 119 311 158 154 160 86 c 1
 183 165 222.427734375 329.455078125 245 394 c 1
 266.73046875 403.232421875 296 394 313 388 c 1
 296.322265625 298.478515625 235.969726562 86.865234375 210 0 c 1
 108 0 l 1
 79.2333984375 85.0078125 43.8896484375 289.359375 26 377 c 1
EndSplineSet
Validated: 524321
EndChar

StartChar: O
Encoding: 79 79 18
Width: 549
Flags: HW
LayerCount: 4
Fore
SplineSet
118 246 m 1
 78.7451171875 424.036132812 167.626953125 533.217773438 208 549 c 0
 318 592 385 529 423 419 c 0
 460.0390625 311.780273438 440 136 300 110 c 0
 160 84 134 195 118 246 c 1
182 665 m 1
 114 644 57.8779296875 539.250976562 46 515 c 0
 22 466 11 361 12 315 c 1
 11 273 5.7587890625 206.86328125 50 129 c 0
 75 85 120 46 155 28 c 0
 176.107421875 17.14453125 290 -19 397 28 c 0
 415.72265625 36.224609375 487 128 500 158 c 1
 526 211 543 330 542 372 c 1
 537.998046875 451.983398438 516.55859375 511.49609375 490 565 c 1
 476 594 424.411132812 638.13671875 355 664 c 1
 292.563476562 685.844726562 209 675 182 665 c 1
EndSplineSet
Validated: 524329
EndChar

StartChar: E
Encoding: 69 69 19
Width: 341
Flags: HW
LayerCount: 4
Fore
SplineSet
10 622 m 1
 9 0 l 1
 334 0 l 1
 334 79 l 1
 98 77 l 1
 102 271 l 1
 309 277 l 1
 311 366 l 1
 99 366 l 1
 101 536 l 1
 334 542 l 1
 335 624 l 1
 10 622 l 1
EndSplineSet
Validated: 9
EndChar

